<?xml version="1.0" standalone="no"?>
<!DOCTYPE svg PUBLIC "-//W3C//DTD SVG 20010904//EN"
 "http://www.w3.org/TR/2001/REC-SVG-20010904/DTD/svg10.dtd">
<svg version="1.0" xmlns="http://www.w3.org/2000/svg"
 width="3345.000000pt" height="1473.000000pt" viewBox="0 0 3345.000000 1473.000000"
 preserveAspectRatio="xMidYMid meet">

<g transform="translate(0.000000,1473.000000) scale(0.100000,-0.100000)"
fill="#000000" stroke="none">
<path d="M5155 12389 c-617 -57 -1073 -321 -1340 -773 -59 -100 -89 -165 -130
-286 l-33 -95 -661 -3 -661 -2 0 -185 c0 -102 1 -185 3 -185 624 -22 832 -132
915 -485 16 -64 17 -310 17 -3040 l0 -2970 -24 -75 c-30 -97 -62 -151 -128
-215 -124 -122 -379 -195 -683 -195 l-100 0 0 -190 0 -190 1001 0 1001 0 -6
22 c-61 225 -53 628 15 841 27 81 109 254 161 336 108 173 194 263 688 722
484 450 733 726 957 1061 104 157 262 463 246 479 -22 22 -352 92 -538 114
l-50 5 -49 -90 c-104 -191 -269 -415 -449 -610 l-57 -61 0 88 c0 48 7 252 15
453 8 201 15 387 15 414 l0 49 183 -6 c398 -14 828 -87 1082 -182 367 -138
644 -399 780 -738 80 -197 115 -406 122 -727 6 -261 -3 -376 -43 -559 -80
-359 -262 -652 -526 -846 -137 -102 -392 -208 -620 -259 -193 -43 -327 -57
-616 -63 -187 -4 -275 -9 -277 -17 -2 -6 -6 -104 -9 -218 l-6 -208 452 0 c460
0 650 8 883 36 702 84 1253 362 1581 796 261 347 383 710 415 1235 50 846
-284 1397 -1098 1811 -271 137 -499 217 -798 277 -183 37 -185 28 20 101 681
243 1046 512 1251 923 114 228 163 492 151 816 -9 234 -46 412 -122 589 -100
232 -293 462 -526 628 -343 245 -914 416 -1649 494 -125 14 -298 18 -888 21
-679 4 -733 6 -727 21 3 10 20 41 38 70 142 235 393 398 717 463 98 20 378 37
422 26 14 -4 58 -36 97 -71 93 -83 164 -130 262 -173 133 -57 224 -76 353 -71
181 7 255 53 296 184 38 126 19 279 -48 384 -104 161 -301 261 -622 316 -114
19 -506 27 -655 13z m735 -1633 c365 -58 606 -171 805 -377 181 -188 282 -406
337 -729 18 -105 22 -165 22 -380 1 -261 -8 -360 -45 -545 -44 -219 -115 -360
-244 -490 -67 -67 -215 -175 -240 -175 -5 0 -18 42 -28 93 -41 210 -147 452
-274 623 -87 116 -242 270 -368 365 -98 73 -284 194 -290 187 -1 -2 -8 -159
-15 -349 l-12 -346 67 -64 c180 -172 297 -401 330 -645 6 -49 5 -52 -19 -58
-44 -11 -406 -55 -513 -62 -97 -6 -103 -6 -103 12 0 10 23 630 50 1378 28 747
50 1363 50 1369 0 13 -535 3 -618 -12 -67 -12 -157 -43 -184 -64 -16 -12 -12
-160 48 -2263 35 -1237 63 -2292 63 -2344 l-1 -95 -139 -130 c-77 -71 -173
-161 -215 -198 l-74 -69 2 2519 c3 2884 -9 2568 102 2679 74 73 154 115 289
149 151 38 248 44 697 40 327 -2 437 -6 520 -19z"/>
<path d="M19160 11444 c-29 -52 -50 -97 -48 -99 2 -2 38 -1 80 2 l76 6 93 93
94 94 -122 0 -122 0 -51 -96z"/>
<path d="M17285 11223 c-164 -35 -314 -154 -384 -305 -51 -107 -65 -185 -58
-301 12 -189 102 -354 250 -457 102 -72 161 -92 292 -97 172 -8 315 37 421
130 51 45 101 124 87 138 -5 5 -54 36 -108 68 -89 53 -101 58 -110 43 -26 -44
-105 -110 -150 -126 -71 -24 -159 -21 -220 8 -65 30 -138 111 -166 184 -31 80
-31 204 1 287 32 85 117 168 196 191 125 36 251 -9 329 -119 l20 -28 103 71
102 72 -22 40 c-91 163 -349 252 -583 201z"/>
<path d="M19030 11224 c-207 -44 -381 -213 -434 -420 -20 -79 -21 -228 0 -307
52 -201 207 -363 403 -421 70 -21 228 -21 305 -1 136 35 272 138 344 257 144
240 106 546 -92 743 -140 139 -328 192 -526 149z m243 -252 c252 -111 247
-538 -7 -653 -27 -12 -65 -19 -112 -19 -87 0 -155 31 -214 97 -60 69 -84 139
-84 253 -1 83 3 102 27 156 75 163 239 233 390 166z"/>
<path d="M11020 10650 l0 -580 135 0 135 0 0 230 0 230 215 0 215 0 0 105 0
105 -215 0 -215 0 0 130 0 130 260 0 260 0 0 115 0 115 -395 0 -395 0 0 -580z"/>
<path d="M11992 10868 c5 -331 7 -370 26 -441 51 -188 165 -308 336 -353 70
-19 247 -18 321 2 118 30 221 112 278 222 67 128 70 146 74 560 l5 372 -135 0
-136 0 -3 -357 c-4 -403 -6 -414 -78 -496 -52 -59 -93 -77 -172 -77 -77 0
-127 26 -175 88 -62 82 -66 109 -71 495 l-4 347 -135 0 -135 0 4 -362z"/>
<path d="M13300 10650 l0 -580 130 0 130 0 0 326 c0 187 4 323 9 320 5 -3 125
-150 267 -326 l258 -320 113 0 113 0 0 580 0 580 -135 0 -135 0 -2 -337 -3
-337 -265 334 -266 335 -107 3 -107 3 0 -581z"/>
<path d="M14600 10650 l0 -580 273 0 c211 0 286 3 332 15 200 51 338 190 390
390 37 144 13 366 -53 490 -40 74 -135 164 -214 203 -109 53 -170 62 -465 62
l-263 0 0 -580z m560 319 c64 -28 133 -102 157 -172 13 -37 18 -81 18 -152 0
-88 -4 -107 -29 -161 -33 -74 -83 -125 -151 -155 -40 -18 -74 -24 -167 -27
l-118 -4 0 352 0 353 119 -6 c91 -5 132 -11 171 -28z"/>
<path d="M15906 10682 c-110 -301 -206 -562 -213 -580 l-13 -33 141 3 142 3
42 125 42 125 180 3 180 2 44 -127 44 -128 138 -3 c75 -1 137 1 137 5 0 4 -93
266 -207 580 l-208 573 -125 0 -125 0 -199 -548z m393 28 c33 -102 61 -188 61
-193 0 -4 -58 -7 -130 -7 -96 0 -130 3 -130 12 0 25 125 387 131 380 4 -4 34
-90 68 -192z"/>
<path d="M18090 10650 l0 -580 135 0 135 0 0 580 0 580 -135 0 -135 0 0 -580z"/>
<path d="M19950 10650 l0 -580 135 0 135 0 2 324 3 325 260 -324 260 -324 113
0 112 -1 0 580 0 580 -135 0 -135 0 -2 -334 -3 -335 -265 335 -265 334 -107 0
-108 0 0 -580z"/>
<path d="M21740 10650 l0 -580 135 0 135 0 0 235 0 235 245 0 245 0 0 -235 0
-235 130 0 130 0 0 580 0 580 -130 0 -130 0 -2 -232 -3 -233 -242 -3 -243 -2
0 235 0 235 -135 0 -135 0 0 -580z"/>
<path d="M23845 10713 c-103 -285 -199 -546 -212 -581 l-23 -63 142 3 141 3
42 125 42 125 177 3 177 2 18 -42 c10 -24 31 -82 47 -130 l28 -88 138 0 c76 0
138 3 138 8 0 4 -94 264 -208 577 l-208 570 -125 3 -125 3 -189 -518z m384 -3
c33 -102 61 -188 61 -193 0 -8 -254 -10 -262 -1 -3 3 24 92 61 199 36 107 69
191 72 187 4 -4 34 -90 68 -192z"/>
<path d="M22910 10165 l0 -95 95 0 95 0 0 95 0 95 -95 0 -95 0 0 -95z"/>
<path d="M24820 10165 l0 -95 95 0 95 0 0 95 0 95 -95 0 -95 0 0 -95z"/>
<path d="M29549 9488 l-117 -213 195 -3 194 -2 234 207 c128 115 234 211 234
216 1 4 -140 7 -312 7 l-312 0 -116 -212z"/>
<path d="M21300 8910 c-353 -37 -648 -177 -895 -425 -212 -211 -347 -464 -416
-777 -26 -119 -37 -395 -20 -520 53 -399 262 -788 556 -1036 212 -179 439
-288 677 -327 136 -22 369 -20 514 5 434 74 809 321 968 637 l25 51 -245 142
c-135 78 -247 140 -248 138 -2 -2 -18 -32 -37 -68 -43 -84 -179 -222 -274
-278 -238 -140 -558 -157 -786 -41 -315 158 -510 460 -551 852 -32 299 76 644
267 855 100 110 254 206 391 243 108 30 314 32 427 6 223 -53 400 -178 507
-360 24 -42 49 -73 55 -70 58 35 445 307 445 314 0 18 -82 144 -138 213 -145
177 -386 332 -615 396 -166 47 -430 68 -607 50z"/>
<path d="M29470 8914 c-413 -53 -773 -263 -1021 -596 -312 -421 -400 -972
-234 -1464 181 -534 602 -914 1131 -1021 136 -27 443 -25 581 5 457 99 826
390 1036 815 286 581 190 1281 -245 1777 -205 233 -486 400 -788 465 -74 16
-383 28 -460 19z m310 -538 c174 -32 305 -101 436 -231 50 -51 110 -123 136
-165 278 -448 212 -1066 -149 -1411 -167 -159 -340 -229 -569 -229 -235 0
-416 73 -587 239 -358 344 -411 988 -119 1429 99 150 268 283 427 337 127 43
291 55 425 31z"/>
<path d="M11020 7365 l0 -1535 783 0 c823 0 886 3 1057 46 120 30 295 116 378
185 110 91 190 216 229 359 14 50 18 100 17 220 -1 138 -4 165 -28 245 -41
135 -89 217 -181 311 -85 86 -160 136 -274 180 l-70 27 76 45 c333 195 451
679 259 1060 -99 196 -273 336 -468 376 -67 14 -189 16 -928 16 l-850 0 0
-1535z m1551 992 c69 -33 132 -99 167 -175 25 -52 27 -68 27 -177 0 -109 -2
-125 -27 -177 -32 -69 -98 -137 -170 -175 l-53 -28 -452 -3 -453 -3 0 379 c0
208 3 382 7 386 4 4 208 5 453 4 l445 -3 56 -28z m97 -1248 c111 -55 190 -169
214 -307 30 -174 -61 -351 -219 -429 l-58 -28 -497 -3 -498 -3 0 401 0 400
498 0 499 0 61 -31z"/>
<path d="M14961 8878 c-5 -13 -287 -696 -626 -1518 -340 -822 -620 -1503 -623
-1512 -4 -17 15 -18 291 -18 l295 0 41 98 c22 53 94 225 159 382 l118 285 661
3 c521 2 662 -1 670 -10 5 -7 79 -181 163 -385 l154 -373 298 0 c284 0 297 1
290 18 -4 10 -288 701 -632 1535 l-625 1517 -313 0 -312 0 -9 -22z m568 -1267
c133 -321 240 -585 238 -587 -2 -2 -223 -3 -490 -2 l-486 3 230 555 c244 593
258 625 264 619 2 -2 112 -267 244 -588z"/>
<path d="M17170 7365 l0 -1535 300 0 300 0 2 513 3 512 290 2 290 3 360 -515
360 -515 338 0 c268 0 337 3 331 13 -5 6 -183 266 -396 576 -214 310 -387 565
-386 566 2 1 35 19 74 39 207 107 372 330 441 591 22 87 26 120 26 255 0 136
-3 167 -26 252 -98 368 -370 654 -713 750 -78 22 -88 23 -836 26 l-758 3 0
-1536z m1395 999 c126 -32 224 -118 286 -249 125 -260 26 -593 -209 -703 l-57
-27 -405 0 -405 0 -3 485 c-1 267 0 491 3 498 7 20 711 17 790 -4z"/>
<path d="M23200 7365 l0 -1535 1045 0 1045 0 0 260 0 260 -745 0 -745 0 0 400
0 400 515 0 515 0 0 245 0 245 -515 0 -515 0 0 370 0 370 745 0 745 0 0 260 0
260 -1045 0 -1045 0 0 -1535z"/>
<path d="M25890 7365 l0 -1535 1080 0 1080 0 0 260 0 260 -780 0 -780 0 0
1275 0 1275 -300 0 -300 0 0 -1535z"/>
<path d="M4983 4924 c-115 -115 -215 -221 -222 -236 -12 -24 -10 -183 15
-1147 23 -883 32 -1122 43 -1134 29 -36 121 -71 187 -71 111 -2 95 -161 148
1412 26 756 45 1376 42 1379 -2 3 -98 -89 -213 -203z"/>
<path d="M11020 4085 l0 -585 135 0 135 0 0 230 0 230 215 0 215 0 0 110 0
110 -215 0 -215 0 0 125 0 125 260 0 260 0 0 120 0 120 -395 0 -395 0 0 -585z"/>
<path d="M12195 4658 c-3 -7 -99 -271 -214 -586 l-209 -573 141 3 140 3 18 55
c11 30 31 88 45 128 l26 72 181 -2 180 -3 42 -125 42 -125 141 -3 141 -3 -30
83 c-16 46 -112 308 -212 583 l-183 500 -122 3 c-92 2 -124 -1 -127 -10z m193
-506 c34 -103 62 -191 62 -195 0 -4 -58 -7 -130 -7 -71 0 -130 3 -130 7 0 15
125 383 130 383 3 0 33 -85 68 -188z"/>
<path d="M13400 4664 c-212 -41 -371 -185 -446 -404 -15 -43 -19 -82 -18 -175
0 -109 3 -128 31 -202 93 -245 295 -393 538 -393 196 0 399 98 465 224 14 25
22 47 20 49 -3 3 -52 33 -110 67 -94 56 -106 60 -115 44 -25 -43 -72 -87 -119
-112 -72 -37 -189 -38 -259 -2 -126 64 -200 227 -175 385 25 161 131 271 273
283 92 7 165 -18 223 -76 26 -26 52 -55 57 -65 9 -15 20 -10 108 52 55 38 101
72 104 75 9 9 -36 72 -84 117 -104 97 -190 130 -353 134 -63 2 -126 1 -140 -1z"/>
<path d="M14172 4293 c4 -409 7 -433 64 -550 59 -122 189 -218 329 -244 89
-17 247 -6 320 21 159 60 257 180 299 367 13 59 16 136 16 427 l0 356 -134 0
-135 0 -3 -367 c-3 -360 -4 -369 -26 -418 -79 -171 -270 -209 -385 -75 -69 81
-71 92 -75 498 l-3 362 -135 0 -135 0 3 -377z"/>
<path d="M15470 4085 l0 -585 415 0 415 0 0 120 0 120 -280 0 -280 0 0 465 0
465 -135 0 -135 0 0 -585z"/>
<path d="M16200 4550 l0 -120 178 -2 177 -3 3 -462 2 -463 135 0 135 0 0 465
0 465 175 0 175 0 0 120 0 120 -490 0 -490 0 0 -120z"/>
<path d="M17570 4666 c0 -2 -92 -255 -204 -562 -112 -308 -207 -569 -210 -581
l-7 -23 138 0 139 0 33 103 c19 56 40 114 48 130 l14 27 177 -2 177 -3 44
-127 43 -128 140 0 c108 0 139 3 136 13 -3 6 -99 270 -214 585 l-208 572 -123
0 c-68 0 -123 -2 -123 -4z m195 -525 l64 -191 -135 0 c-74 0 -134 1 -134 3 0
3 116 353 125 376 3 8 8 12 11 9 2 -3 33 -91 69 -197z"/>
<path d="M18410 4086 l0 -586 263 0 c188 0 281 4 329 15 215 45 368 199 412
417 59 285 -50 559 -264 665 -116 58 -158 64 -462 70 l-278 6 0 -587z m561
318 c100 -46 159 -130 178 -254 26 -166 -46 -327 -174 -386 -44 -21 -65 -24
-172 -24 l-123 0 0 338 c0 186 3 342 8 346 4 4 59 6 122 4 89 -3 125 -8 161
-24z"/>
<path d="M20090 4086 l0 -586 258 0 c292 0 355 9 468 65 133 65 242 209 273
363 16 76 13 246 -4 321 -48 204 -198 354 -400 401 -27 6 -173 14 -322 17
l-273 6 0 -587z m553 320 c102 -45 174 -158 184 -289 13 -171 -71 -319 -206
-365 -19 -7 -85 -12 -147 -12 l-114 0 0 346 0 346 123 -4 c83 -4 134 -10 160
-22z"/>
<path d="M21320 4085 l0 -585 410 0 410 0 0 120 0 120 -275 0 -275 0 0 120 0
120 230 0 230 0 0 110 0 110 -230 0 -230 0 0 115 0 115 265 0 265 0 0 120 0
120 -400 0 -400 0 0 -585z"/>
<path d="M22800 4085 l0 -585 135 0 135 0 2 338 3 337 123 -242 122 -243 75 0
75 0 124 248 125 247 0 -342 1 -343 135 0 135 0 0 585 0 585 -145 0 -145 0
-150 -300 c-83 -166 -154 -299 -158 -296 -4 2 -72 138 -151 300 l-144 296
-149 0 -148 0 0 -585z"/>
<path d="M24270 4085 l0 -585 410 0 410 0 0 120 0 120 -275 0 -275 0 0 120 0
120 230 0 230 0 0 110 0 110 -227 2 -228 3 0 110 0 110 268 3 267 2 0 120 0
120 -405 0 -405 0 0 -585z"/>
<path d="M25310 4085 l0 -585 263 0 c294 0 352 8 463 61 220 106 336 380 280
659 -53 261 -225 414 -495 440 -53 5 -189 10 -303 10 l-208 0 0 -585z m576
309 c117 -59 169 -168 162 -332 -7 -150 -64 -248 -173 -298 -44 -21 -65 -24
-172 -24 l-123 0 0 338 c0 186 3 342 8 346 4 5 60 6 124 4 105 -4 122 -7 174
-34z"/>
<path d="M26550 4085 l0 -585 130 0 130 0 0 585 0 585 -130 0 -130 0 0 -585z"/>
<path d="M27465 4657 c-315 -81 -498 -399 -415 -721 28 -112 73 -190 160 -277
115 -117 237 -169 390 -169 161 1 319 59 413 154 47 46 87 110 76 120 -2 2
-51 31 -109 65 l-105 61 -15 -22 c-79 -117 -213 -165 -341 -123 -74 25 -157
108 -189 190 -29 77 -32 196 -6 276 41 128 156 219 275 219 110 0 195 -41 248
-121 l25 -39 97 67 c53 36 100 69 105 74 11 10 -42 86 -91 130 -98 88 -185
120 -348 125 -77 2 -138 -1 -170 -9z"/>
<path d="M28280 4085 l0 -585 135 0 135 0 0 585 0 585 -135 0 -135 0 0 -585z"/>
<path d="M28830 4085 l0 -585 135 0 135 0 0 325 c0 179 3 325 8 324 4 0 124
-146 267 -325 l259 -324 113 0 113 0 0 585 0 585 -135 0 -135 0 -2 -341 -3
-342 -270 341 -270 342 -107 0 -108 0 0 -585z"/>
<path d="M30245 4098 c-114 -315 -210 -579 -213 -585 -3 -10 28 -13 136 -13
l140 0 43 128 44 127 180 0 180 0 45 -127 44 -128 138 0 c76 0 138 2 138 5 0
3 -95 266 -211 585 l-212 580 -122 0 -121 0 -209 -572z m400 43 l64 -191 -136
0 c-104 0 -134 3 -131 13 3 6 33 94 68 195 35 100 65 181 67 179 2 -2 32 -90
68 -196z"/>
</g>
</svg>
